<?xml version="1.0" encoding="UTF-8" standalone="no"?>
<!DOCTYPE svg PUBLIC "-//W3C//DTD SVG 1.1//EN" "http://www.w3.org/Graphics/SVG/1.1/DTD/svg11.dtd">
<svg width="100%" height="100%" viewBox="0 0 1468 1468" version="1.1" xmlns="http://www.w3.org/2000/svg" xmlns:xlink="http://www.w3.org/1999/xlink" xml:space="preserve" xmlns:serif="http://www.serif.com/" style="fill-rule:evenodd;clip-rule:evenodd;stroke-linejoin:round;stroke-miterlimit:1.5;">
    <g id="Layer-1" serif:id="Layer 1">
        <g transform="matrix(1,0,0,1,1229.72,865.456)">
            <path d="M0,81.852C20.336,71.347 30.505,66.095 35.127,61.125C57.485,37.085 33.25,7.973 52.146,-40.984C56.896,-53.294 66.461,-77.045 89.891,-87.239C94.735,-89.346 113.057,-96.481 129.382,-88.766C155.232,-76.549 157.439,-35.902 158.182,-22.221C162.544,58.121 96.268,117.439 84.655,127.452C78.445,132.806 46.266,159.903 -2.182,169.997C-20.861,173.89 -42.184,178.333 -53.018,166.725C-66.152,152.653 -59.09,120.114 -42.327,103.452C-33.525,94.702 -28.141,96.388 0,81.852" style="fill:rgb(239,244,229);fill-rule:nonzero;"/>
        </g>
        <g transform="matrix(1,0,0,1,617.284,1214.19)">
            <path d="M0,-957.859C-30.954,-947.193 -56.945,-931.241 -56.945,-931.241C-65.4,-926.052 -93.798,-907.996 -122.4,-875.604C-147.18,-847.541 -161.545,-820.685 -169.745,-805.132C-177.406,-790.603 -178.09,-787.056 -190.255,-764.062C-204.474,-737.184 -208.491,-732.673 -216.003,-716.332C-224.87,-697.044 -231.134,-683.417 -233.673,-665.059C-239.192,-625.153 -223.511,-588.898 -222.545,-586.732C-214.091,-567.759 -203.367,-555.581 -206.182,-535.895C-207.156,-529.085 -209.398,-523.84 -212.727,-517.35C-226.856,-489.811 -244.323,-471.515 -252.873,-461.932C-276.744,-435.175 -298.294,-411.019 -300.218,-381.641C-302.206,-351.301 -282.469,-327.488 -281.018,-325.786C-238.078,-275.428 -226.694,-253.171 -159.76,-212.869C-110.706,-183.332 -115.344,-157.097 -22.529,-78.426C19.363,-42.918 72.485,-19.743 123.382,-9.095C165.862,-0.209 187.101,4.235 207.164,-2.55C214.982,-5.194 231.463,-12.145 244.524,-4.67C251.355,-0.761 252.759,4.524 257.345,9.696C271.402,25.549 299.555,22.526 313.636,21.014C431.617,8.346 514.8,-77.604 514.8,-77.604C564.608,-129.069 586.297,-182.276 592.036,-197.168C638.699,-318.253 603.506,-430.301 583.745,-493.212C571.788,-531.281 546.362,-612.233 508.691,-647.059C504.716,-650.734 490.395,-663.334 480.554,-684.783C472.14,-703.122 475.242,-714.379 470.291,-736.95C470.291,-736.95 465.725,-757.766 448.522,-790.683C429.05,-827.939 345.585,-930.85 201.055,-964.295C118.458,-983.408 44.55,-973.209 0,-957.859" style="fill:rgb(239,244,229);fill-rule:nonzero;"/>
        </g>
        <g transform="matrix(1,0,0,1,490.845,189.307)">
            <path d="M0,154.251C-18.375,131.755 -12.333,95.918 -11.016,78.306C-6.25,14.59 7.672,2.516 13.203,-1.471C22.98,-8.519 33.184,-9.502 40.775,-10.233C79.834,-13.994 110.753,14.455 129.712,31.899C153.122,53.439 164.828,64.209 165.057,78.306C165.678,116.437 100.535,168.245 36.271,167.23C19.66,166.968 6.286,161.946 0,154.251" style="fill:rgb(164,206,73);fill-rule:nonzero;"/>
        </g>
        <g transform="matrix(1,0,0,1,845.805,384.397)">
            <path d="M0,-148.142C15.305,-161.26 29.143,-168.283 41.236,-174.324C70.011,-188.697 89.043,-198.203 109.309,-193.306C129.988,-188.309 141.609,-170.814 151.854,-155.39C159.555,-143.798 176.467,-115.022 181.309,-44.724C185.481,15.838 180.441,17.042 161.366,24.3C93.659,50.061 34.526,2.282 19.333,-12.25C-8.664,-39.031 -42.009,-77.124 -36.501,-116.753C-32.93,-142.448 -15.527,-134.835 0,-148.142" style="fill:rgb(164,206,73);fill-rule:nonzero;"/>
        </g>
        <g transform="matrix(1,0,0,1,1266.87,990.877)">
            <path d="M0,-79.756C6.04,-70.733 10.869,-55.983 30.957,-44.693C48.524,-34.821 67.266,-35.059 76.503,-33.155L52.214,0C44.125,-0.181 24.08,-2.007 2.98,-19.542C-13.612,-33.33 -18.214,-44.98 -21.598,-52.41L0,-79.756Z" style="fill:rgb(202,116,6);fill-rule:nonzero;"/>
        </g>
        <g transform="matrix(1,0,0,1,1334.99,886.895)">
            <path d="M0,-26.557C12.038,-26.105 31.723,-28.725 52.405,-33.512C50.707,-23.199 45.578,-4.909 43.879,5.403C35.798,8.119 7.44,15.852 -16.181,10.844C-31.081,7.685 -46.748,-2.817 -51.152,-7C-50.411,-18.964 -44.354,-42.409 -44.354,-42.409C-44.354,-42.409 -24.053,-27.46 0,-26.557" style="fill:rgb(202,116,6);fill-rule:nonzero;"/>
        </g>
        <g transform="matrix(0,-1,-1,0,893.518,518.369)">
            <path d="M-69.054,-69.054C-107.193,-69.054 -138.109,-38.137 -138.109,0.001C-138.109,38.138 -107.193,69.054 -69.054,69.054C-30.916,69.054 0.001,38.138 0.001,0.001C0.001,-38.137 -30.916,-69.054 -69.054,-69.054" style="fill:rgb(202,116,6);fill-rule:nonzero;"/>
        </g>
        <g transform="matrix(1,0,0,1,419.667,611.312)">
            <path d="M0,-142.201C35.739,-128.889 53.919,-89.125 40.607,-53.386C27.294,-17.647 -9.59,0 -45.329,-13.313" style="fill:rgb(202,116,6);fill-rule:nonzero;"/>
        </g>
        <g transform="matrix(2.22657,0.0458327,-0.0458327,2.22657,-876.589,-409.227)">
            <path d="M641.924,360.253C641.924,360.253 637.924,377.084 632.886,383.43C627.849,389.776 608.95,391.657 608.95,391.657C608.95,391.657 627.711,394.093 633.338,399.196C638.964,404.299 642.709,421.49 642.709,421.49C642.709,421.49 644.82,402.942 650.839,398.885C656.858,394.829 672.246,390.124 672.246,390.124C672.246,390.124 656.158,389.781 649.84,383.143C642.054,374.965 641.924,360.253 641.924,360.253Z" style="fill:rgb(255,236,25);stroke:black;stroke-width:4.86px;"/>
        </g>
        <g transform="matrix(2.22659,0.044698,-0.044698,2.22659,-647.555,-387.489)">
            <path d="M641.924,360.253C641.924,360.253 637.924,377.084 632.886,383.43C627.849,389.776 608.95,391.657 608.95,391.657C608.95,391.657 627.711,394.093 633.338,399.196C638.964,404.299 642.709,421.49 642.709,421.49C642.709,421.49 644.82,402.942 650.839,398.885C656.858,394.829 672.539,391.292 672.539,391.292C672.539,391.292 656.158,389.781 649.84,383.143C642.054,374.965 641.924,360.253 641.924,360.253Z" style="fill:rgb(255,236,25);stroke:black;stroke-width:4.86px;"/>
        </g>
        <g transform="matrix(1,0,0,1,503.188,626.508)">
            <path d="M0,-316.33C0,-316.33 0.223,-319.406 0.452,-323.026C0.452,-323.026 0.762,-327.937 1.015,-332.903C1.47,-341.826 1.678,-350.566 1.964,-356.912C1.964,-356.912 3.225,-383.793 9.491,-399.13C11.182,-403.269 13.674,-405.837 14.809,-406.985C16.955,-409.154 18.456,-409.857 19.609,-410.203C20.083,-410.345 22.158,-410.924 25.118,-410.203C32.875,-408.313 40.827,-399.73 40.827,-399.73C49.444,-390.43 53.752,-385.781 58.827,-378.839C58.827,-378.839 67.85,-366.498 70.936,-355.112C71.404,-353.388 72.048,-350.471 70.936,-347.366C69.883,-344.424 67.748,-342.698 66.682,-341.857C56.522,-333.846 51.442,-329.841 50.155,-329.148C46.608,-327.241 38.9,-320.622 23.482,-307.385C11.478,-297.078 -6.284,-282.763 -25.227,-254.107C-25.227,-254.107 -45.427,-225.114 -56.536,-196.712C-59.433,-189.307 -62.704,-182.05 -65.536,-174.621C-65.933,-173.58 -66.702,-171.54 -67.991,-168.894C-69.508,-165.778 -70.564,-164.251 -72.409,-161.039C-74.421,-157.537 -75.276,-155.68 -76.664,-153.021C-82.492,-141.853 -85.358,-140.225 -90.573,-129.785C-92.09,-126.748 -93.384,-123.614 -95.973,-117.348C-98.754,-110.617 -100.507,-106.373 -102.355,-100.657C-105.036,-92.362 -106.348,-85.819 -107.1,-82.003C-109.049,-72.118 -109.688,-64.449 -109.882,-61.875C-110.015,-60.111 -110.582,-52.194 -110.209,-43.057C-109.331,-21.529 -103.641,-3.153 -100.691,5.297C-94.626,22.67 -87.34,34.656 -81.955,43.425C-81.954,43.425 -70.519,62.044 -57.082,76.561C-54.562,79.283 -47.721,86.191 -46.773,87.034C-46.699,87.099 -46.194,87.543 -45.573,88.179C-45.437,88.318 -45.167,88.598 -44.836,88.97C-44.391,89.471 -44.169,89.721 -43.936,90.061C-43.612,90.535 -43.403,90.84 -43.282,91.315C-43.229,91.523 -43.096,92.071 -43.282,92.734C-43.345,92.959 -43.494,93.466 -43.964,93.879C-44.042,93.948 -44.329,94.19 -44.836,94.343C-45.673,94.594 -46.427,94.399 -46.827,94.288C-49.113,93.658 -49.936,93.197 -49.936,93.197C-54.028,90.911 -58.136,90.192 -66.245,84.879C-70.052,82.385 -73.501,79.69 -80.836,72.934C-93.586,61.19 -99.96,55.318 -104.782,48.443C-109.451,41.785 -111.679,36.592 -115.827,26.925C-123.019,10.164 -126.289,-3.715 -127.445,-8.994C-128.94,-15.818 -132.051,-31.786 -131.945,-52.603C-131.91,-59.664 -131.459,-76.16 -126.873,-96.785C-122.495,-116.471 -119.993,-127.723 -111.982,-140.475C-110.442,-142.926 -100.282,-158.83 -93.327,-170.175C-92.433,-171.635 -90.357,-175.046 -88.173,-179.83C-85.517,-185.647 -84.199,-190.215 -83.755,-191.694C-80.021,-204.117 -71.427,-219.797 -64.745,-231.989C-57.714,-244.82 -54.198,-251.235 -48.873,-258.335C-31.036,-282.115 0,-316.33 0,-316.33" style="fill-rule:nonzero;"/>
        </g>
        <g transform="matrix(1,0,0,1,877.524,321.751)">
            <path d="M0,-45.215C1.227,-46.544 3.094,-48.392 5.36,-50.609C8.524,-53.703 11.81,-57.016 16.154,-60.541C26.448,-68.894 33.775,-73.137 43.325,-78.708C53.529,-84.277 70.789,-91.95 79.853,-80.019C85.346,-73.356 89.492,-62.468 90.317,-56.253C92.217,-46.313 93.275,-36.677 93.853,-29.641C94.788,-14.855 94.986,-18.531 94.067,5.37C93.639,12.806 93.118,19.958 92.191,27.715C91.256,32.19 88.243,42.864 82.172,44.674C76.487,46.735 71.513,42.168 68.113,38.19C62.021,31.752 55.029,26.12 48.624,20.012C43.921,15.386 39.157,11.622 33.794,7.619C25.945,1.949 8.777,-11.645 3.463,-13.59C-8.485,-18.493 -14.995,-28.948 -4.955,-39.595C-3.303,-41.469 -1.694,-43.38 0,-45.215" style="fill-rule:nonzero;"/>
        </g>
        <g transform="matrix(1,0,0,1,468.31,158.188)">
            <path d="M0,200.37L20.618,178.19C20.214,173.29 19.83,167.043 19.718,159.781C19.685,157.631 19.576,148.925 20.291,137.118C20.681,130.687 21.314,124.839 22.582,113.145C24.201,98.207 25.045,93.238 25.445,90.972C26.38,85.686 27.334,81.363 28.391,76.572C30.119,68.739 30.983,64.822 32.4,59.799C36.078,46.76 37.255,48.054 41.482,35.5C41.482,35.499 42.95,31.14 46.718,26.581C47.421,25.732 48.479,24.609 50.155,23.881C51.155,23.447 52.063,23.29 52.691,23.227C52.691,23.227 54.184,23.021 55.8,23.227C64.105,24.284 70.036,27.318 70.036,27.318C83.021,33.958 85.886,32.597 108.9,44.99C115.653,48.627 121.281,51.657 128.782,56.445C140.047,63.635 146.964,69.314 161.264,79.845C165.654,83.078 166.344,83.531 167.809,84.836C168.344,85.312 168.928,85.854 169.855,86.472C171.864,87.813 173.835,88.412 175.227,88.709C181.232,84.256 187.236,79.804 193.241,75.352C193.241,75.352 184.599,68.455 178.514,63.897C164.768,53.602 153.916,46.555 144.805,40.661C132.054,32.414 125.679,28.29 116.495,23.479C111.358,20.788 105.434,18.139 93.586,12.843C77.762,5.768 70.619,3.064 61.514,1.388C55.445,0.271 50.626,0 45.314,1.388C39.205,2.984 35.025,6.097 33.205,7.606C28.428,11.566 26.04,15.974 24.695,18.57C14.425,38.405 11.441,51.133 11.441,51.134C4.289,81.642 -0.61,102.542 -2.468,133.606C-3.727,154.654 -2.992,170.37 -2.468,178.443C-1.893,187.296 -0.341,200.37 -0.341,200.37L0,200.37Z" style="fill-rule:nonzero;"/>
        </g>
        <g transform="matrix(1,0,0,1,828.43,245.75)">
            <path d="M0,-4.164C-4.198,-5.882 -10.198,-8.154 -17.564,-10.32C-31.32,-14.365 -41.873,-15.697 -57.382,-17.582C-67.146,-18.769 -78.202,-20.086 -93.164,-20.528C-108.253,-20.974 -119.459,-20.298 -129.709,-19.655C-149.365,-18.421 -159.193,-17.804 -166.909,-15.4C-174.427,-13.059 -182.366,-9.85 -187.145,-7.75C-190.287,-6.269 -193.421,-4.74 -196.526,-3.255C-202.158,-0.772 -208.122,1.542 -213.491,4.891C-216.599,7.112 -218.871,8.91 -220.916,10.216C-221.627,10.669 -222.859,12.036 -223.473,12.854C-223.915,13.443 -223.958,14.122 -223.895,14.627C-223.852,14.974 -223.661,15.227 -223.527,15.404C-223.137,15.921 -222.632,16.141 -222.341,16.263C-221.043,16.81 -219.164,16.546 -219.116,16.536C-214.915,15.649 -210.525,14.961 -206.455,14.02C-197.732,12.004 -189.208,11.325 -180.409,9.677C-163.74,6.555 -155.406,4.994 -147.436,4.031C-134.549,2.475 -124.645,2.197 -113.25,1.877C-102.073,1.563 -94.224,1.343 -83.25,1.986C-72.881,2.593 -65.646,3.646 -51.177,5.75C-42.508,7.01 -36.174,8.131 -28.486,10.331C-24.551,11.458 -21.317,12.565 -19.05,13.386L0,-4.164Z" style="fill-rule:nonzero;"/>
        </g>
        <g transform="matrix(1,0,0,1,822.341,363.076)">
            <path d="M0,-129.059C1.452,-130.54 4.52,-133.522 20.618,-143.95C25.334,-147.005 27.691,-148.534 31.219,-150.673C41.083,-156.652 49.098,-160.759 54.327,-163.423C57.108,-164.84 68.779,-170.741 84.6,-177.168C96.078,-181.83 102.138,-183.681 105.055,-184.532C112.885,-186.816 119.655,-188.744 128.782,-189.113C134.524,-189.346 139.917,-189.564 146.618,-187.477C155.424,-184.734 161.012,-179.714 163.964,-177.004C170.151,-171.325 173.245,-165.614 179.182,-154.423C185.211,-143.057 188.76,-133.848 191.127,-127.647C192.528,-123.976 196.041,-114.548 199.636,-101.732C200.722,-97.864 204.04,-85.756 207.327,-67.041C210.696,-47.864 213.265,-33.239 213.382,-13.859C213.382,-13.859 213.428,4.451 209.945,27.05C209.945,27.05 208.991,33.242 207.082,41.191C206.81,42.323 206.532,43.385 206.141,44.627C205.801,45.707 205.228,47.176 204.095,50.068C204.095,50.068 203.458,51.698 202.255,54.527C201.869,55.434 201.653,55.926 201.273,56.573C200.418,58.028 199.552,58.873 198.982,59.355C198.21,60.007 197.778,60.361 197.1,60.418C196.078,60.505 195.29,59.854 195.095,59.682C194.616,59.259 194.409,58.789 194.195,58.291C193.731,57.208 193.676,56.263 193.664,56.041C193.638,55.607 193.28,51.498 193.336,50.477C194.018,38.169 193.425,25.823 193.5,13.496C193.531,8.372 193.558,2.795 193.282,-4.723C193.109,-9.429 192.781,-17.912 191.645,-28.123C191.07,-33.294 190.284,-38.947 187.282,-54.85C184.053,-71.953 182.439,-80.504 180.955,-86.432C177.789,-99.068 173.381,-110.529 164.564,-133.45C164.564,-133.45 161.168,-142.277 153.764,-153.577C151.807,-156.563 149.028,-160.511 144.109,-163.723C142.852,-164.543 140.283,-166.193 136.773,-167.132C130.592,-168.785 125.208,-167.241 121.391,-166.095C104.661,-161.075 96.287,-158.562 95.891,-158.404C89.801,-155.979 75.709,-150.134 58.145,-140.295C49.002,-135.173 41.911,-130.645 38.073,-128.186C34.327,-125.786 28.06,-121.759 20.182,-116.077C10.309,-108.957 4.865,-103.582 -1.2,-99.386C-2.671,-98.368 -4.749,-96.785 -8.905,-93.618C-9.605,-93.084 -10.32,-92.529 -11.168,-91.736C-11.54,-91.389 -11.651,-91.263 -12.532,-90.427C-13.234,-89.761 -13.593,-89.421 -14.005,-89.064C-14.335,-88.776 -14.384,-88.748 -15.559,-87.809C-16.78,-86.833 -17.391,-86.345 -17.55,-86.2C-18.393,-85.434 -18.475,-85.221 -19.023,-84.945C-19.163,-84.875 -19.774,-84.578 -20.632,-84.536C-21.127,-84.512 -21.735,-84.482 -22.35,-84.836C-22.959,-85.187 -23.241,-85.723 -23.386,-86.009C-23.706,-86.636 -23.764,-87.226 -23.741,-88.491C-23.716,-89.849 -23.703,-90.528 -23.55,-91.545C-23.274,-93.376 -22.807,-94.803 -22.486,-95.691C-21.535,-98.325 -20.417,-100.242 -19.514,-101.773C-16.744,-106.469 -15.359,-108.817 -14.359,-110.363C-12.87,-112.667 -10.979,-115.591 -8.332,-119.118C-6.795,-121.166 -3.709,-125.276 0,-129.059" style="fill-rule:nonzero;"/>
        </g>
        <g transform="matrix(1,0,0,1,405.341,506.285)">
            <path d="M0,14.546C3.889,16.006 3.574,15.933 6.464,17.001C9.338,18.062 13.147,19.427 15.055,20.11C18.948,21.504 19.217,21.582 20.045,21.991C21.161,22.543 22.062,23.087 23.645,23.546C24.513,23.797 25.361,24.036 26.509,24.037C27.055,24.037 28.614,23.985 30.355,23.117C31.275,22.659 32.441,22.077 33.218,20.764C33.797,19.787 33.88,18.877 33.955,18.064C34.036,17.17 34.187,15.53 33.3,13.81C32.391,12.045 30.815,11.177 29.7,10.619C25.408,8.471 21.646,7.609 18.655,6.773C16.179,6.082 13.35,5.031 7.691,2.928C1,0.441 1.65,0.391 -1.473,-0.59C-7.402,-2.453 -7.834,-1.668 -14.318,-3.699C-16.997,-4.539 -17.737,-4.929 -22.418,-6.399C-24.86,-7.166 -26.788,-7.729 -29.045,-8.281C-30.874,-8.729 -31.925,-9.14 -33.545,-9.263C-35.195,-9.388 -36.555,-9.491 -38.045,-8.772C-39.998,-7.83 -40.887,-6.097 -41.236,-5.418C-41.523,-4.859 -42.176,-3.548 -42.136,-1.736C-42.123,-1.131 -42.065,0.531 -40.991,2.028C-39.928,3.509 -38.446,4.024 -36.327,4.728C-34.099,5.468 -33.647,5.177 -30.436,5.955C-28.222,6.492 -27.98,6.741 -25.773,7.342C-22.903,8.124 -21.581,8.173 -18.9,8.655C-14.949,9.365 -12.064,10.292 -8.755,11.355C-6.985,11.923 -4.657,12.798 0,14.546" style="fill-rule:nonzero;"/>
        </g>
        <g transform="matrix(1,0,0,1,397.023,558.036)">
            <path d="M0,11.15C4.286,10.588 4.219,10.459 7.582,10.059C11.929,9.542 15.295,9.371 18.927,9.186C22.841,8.987 26.736,8.307 30.655,8.368C30.915,8.372 31.729,8.39 32.727,8.095C33.244,7.943 34.607,7.523 35.727,6.241C36.647,5.189 36.932,4.096 37.091,3.459C37.513,1.762 37.221,0.373 37.091,-0.141C36.677,-1.775 35.815,-2.804 35.618,-3.032C35.242,-3.468 34.225,-4.527 32.073,-5.214C29.502,-6.033 27.574,-5.598 24.327,-5.214C20.505,-4.761 21.938,-5.219 16.036,-4.668C11.845,-4.277 10.69,-4.006 4.855,-3.359C1.926,-3.034 1.036,-3.156 -0.982,-2.759C-3.645,-2.235 -3.957,-1.816 -7.2,-1.068C-10.024,-0.417 -10.009,-0.684 -13.636,0.077C-17.385,0.864 -17.27,1.122 -19.145,1.277C-20.51,1.39 -21.946,1.334 -24.818,1.223C-26.909,1.141 -26.783,1.084 -28.091,1.059C-31.101,1.002 -32.636,0.987 -34.091,1.659C-35.776,2.437 -36.705,3.648 -36.927,3.95C-37.093,4.175 -37.834,5.209 -38.182,6.786C-38.506,8.256 -38.319,9.422 -38.182,10.223C-37.981,11.396 -37.692,13.091 -36.327,14.586C-36.095,14.84 -35.184,15.8 -33.655,16.386C-31.578,17.183 -29.677,16.787 -27.873,16.386C-25.732,15.911 -24.219,15.194 -23.727,14.968C-21,13.715 -17.727,13.26 -11.182,12.35C-6.282,11.669 -6.367,11.984 0,11.15" style="fill-rule:nonzero;"/>
        </g>
        <g transform="matrix(1,0,0,1,578.864,587.958)">
            <path d="M0,-35.531C0.467,-32.388 0.377,-31.763 0.614,-30.417C1.107,-27.61 2.322,-25.607 2.795,-24.854C3.182,-24.239 4.792,-21.77 7.923,-19.726C11.139,-17.627 14.173,-17.144 15.886,-16.89C21.329,-16.083 25.613,-17.471 27.777,-18.199C30.293,-19.046 34.763,-20.611 38.577,-24.854C40.738,-27.257 42.955,-29.723 43.159,-32.817C43.204,-33.494 43.195,-34.848 43.923,-36.417C44.068,-36.73 44.703,-38.044 46.105,-39.254C46.651,-39.725 47.96,-40.826 50.032,-41.217C50.774,-41.358 52.552,-41.584 54.505,-40.781C57.43,-39.579 58.641,-36.933 58.977,-36.199C59.815,-34.371 59.442,-33.658 60.068,-30.308C60.142,-29.915 60.742,-26.761 61.705,-24.417C63.243,-20.673 65.897,-18.542 68.905,-16.126C70.972,-14.466 74.268,-11.872 79.377,-10.345C81.189,-9.803 84.603,-8.819 89.086,-9.254C90.834,-9.423 95.286,-9.91 99.777,-13.072C103.144,-15.442 104.922,-18.182 105.341,-18.854C106.287,-20.369 106.854,-21.826 106.855,-21.826C107.529,-23.482 107.363,-23.725 107.836,-24.486C109.026,-26.4 111.354,-26.921 111.805,-27.022C114.095,-27.535 115.939,-26.713 116.509,-26.449C120.11,-24.781 121.131,-20.861 121.255,-20.354C122.202,-16.466 120.233,-13.149 118.391,-10.045C115.883,-5.819 112.783,-3.373 110.25,-1.413C108.114,0.241 105.271,2.405 101.005,3.946C96.788,5.469 93.307,5.616 88.282,5.828C85.412,5.949 82.958,6.053 79.855,5.664C73.22,4.835 68.472,2.356 65.823,0.96C64.544,0.286 60.521,-1.91 56.086,-5.872C53.337,-8.328 49.786,-12.622 49.786,-12.622C47.44,-10.706 44.163,-8.398 39.927,-6.404C38.832,-5.888 34.452,-3.876 28.227,-2.64C25.064,-2.012 21.284,-1.261 16.241,-1.658C9.725,-2.171 5.073,-4.288 3.886,-4.849C-2.156,-7.709 -5.69,-11.58 -6.505,-12.499C-7.002,-13.06 -10.24,-16.769 -12.314,-22.154C-13.505,-25.246 -13.944,-27.936 -13.991,-29.436C-14.01,-30.042 -13.994,-31.366 -13.991,-31.604C-13.97,-33.278 -13.916,-33.82 -13.827,-34.345C-13.734,-34.894 -13.653,-35.374 -13.418,-35.981C-12.928,-37.25 -12.166,-38.044 -11.823,-38.395C-11.232,-38.999 -10.67,-39.37 -9.982,-39.826C-9.5,-40.146 -9.17,-40.365 -8.755,-40.563C-7.174,-41.317 -5.624,-41.165 -4.991,-41.095C-4.13,-41 -3.136,-40.89 -2.209,-40.154C-2.057,-40.033 -1.698,-39.73 -1.268,-39.09C-0.338,-37.707 -0.114,-36.299 0,-35.531" style="fill-rule:nonzero;"/>
        </g>
        <g transform="matrix(1,0,0,1,871.323,552.284)">
            <path d="M0,16.574C3.947,15.758 9.151,15.125 14.727,14.447C28.041,12.843 41.394,11.981 54.6,11.992C55.094,12.058 57.008,12.334 59.018,11.447C59.564,11.206 60.886,10.602 61.8,9.21C63.142,7.167 62.61,4.868 62.345,3.701C62.036,2.335 61.532,1.673 61.364,1.465C60.772,0.733 60.098,0.377 59.564,0.101C58.141,-0.632 56.805,-0.698 56.455,-0.717C40.496,-1.56 33.655,-1.044 33.655,-1.044C25.69,-0.418 15.432,0.44 8.4,1.465C6.602,1.824 4.729,2.159 0.982,2.829C-1.956,3.353 -7.029,3.713 -8.945,3.865C-10.876,4.089 -11.859,4.21 -12.709,4.683C-14.561,5.713 -15.361,7.473 -15.655,8.119C-15.993,8.864 -16.618,10.29 -16.364,12.156C-16.317,12.494 -15.947,14.923 -13.8,16.574C-12.312,17.719 -10.755,17.886 -9.764,17.992C-8.442,18.134 -7.627,17.952 -4.582,17.392C-3.056,17.112 -1.519,16.888 0,16.574" style="fill-rule:nonzero;"/>
        </g>
        <g transform="matrix(1,0,0,1,890.142,602.461)">
            <path d="M0,12.149C4.793,13.707 7.114,14.583 13.793,16.627C16.545,17.47 22.139,19.154 24.743,20.343C24.984,20.454 26.111,20.975 27.688,21.489C28.587,21.781 29.417,22.051 30.361,22.198C31.227,22.332 33.152,22.631 35.202,21.802C35.826,21.55 38.373,20.52 39.333,17.807C40.178,15.42 39.24,13.299 38.979,12.734C37.958,10.522 36.046,9.371 34.643,8.63C27.269,4.732 17.152,2.418 14.543,1.771C11.338,0.975 7.761,-0.146 0.606,-2.388C-5.776,-4.389 -12.182,-6.314 -18.566,-8.307C-18.567,-8.307 -20.259,-8.835 -23.094,-9.561C-25.338,-10.136 -26.477,-10.424 -27.266,-10.434C-28.138,-10.445 -31.083,-10.482 -33.212,-8.307C-34.766,-6.718 -35.064,-4.789 -35.176,-3.998C-35.289,-3.194 -35.51,-1.615 -34.739,-0.016C-34.501,0.478 -33.681,1.985 -30.43,3.421C-23.138,5.198 -15.831,7.139 -8.707,9.427C-4.521,10.71 -2.431,11.359 0,12.149" style="fill-rule:nonzero;"/>
        </g>
        <g transform="matrix(1,0,0,1,1026.92,613.866)">
            <path d="M0,-259.153C3.902,-255.601 9.429,-250.228 15.382,-243.117C22.998,-234.018 29.535,-224.194 41.236,-201.062C53.414,-176.988 59.503,-164.951 65.127,-148.371C68.98,-137.013 74.543,-120.312 77.236,-97.48C77.236,-97.48 79.906,-74.85 73.309,-24.989C73.309,-24.989 71.908,-14.4 66.982,-5.571C66.105,-4 65.073,-2.626 65.073,-2.626C64.843,-2.114 64.366,-1.271 63.436,-0.662C63.015,-0.386 62.425,0 61.691,-0.096C61.197,-0.161 60.87,-0.414 60.382,-0.792C59.949,-1.127 59.381,-1.54 59.011,-2.264C58.692,-2.891 58.657,-3.47 58.643,-3.819C58.57,-5.719 58.533,-6.669 58.95,-8.196C59.003,-8.39 59.299,-12.934 59.891,-22.024C60.263,-27.733 60.574,-40.233 60.116,-52.664C59.711,-63.655 58.807,-85.223 52.439,-112.249C48.742,-127.936 44.651,-139.32 41.53,-147.921C36.028,-163.08 28.954,-182.227 14.911,-203.994C9.224,-212.81 3.884,-219.745 0,-224.503L0,-259.153Z" style="fill-rule:nonzero;"/>
        </g>
        <g transform="matrix(1,0,0,1,1098.1,1250.14)">
            <path d="M0,-729.567C5.424,-723.535 12.326,-715.613 20.046,-706.085C38.393,-683.441 50.656,-664.939 54.409,-659.203C70.87,-634.049 81.738,-612.857 87.136,-601.849C91.227,-593.507 101.328,-572.35 111.518,-543.512C131.825,-486.049 138.169,-438.611 139.936,-424.003C142.63,-401.741 146.998,-364.194 142.118,-315.349C140.01,-294.24 137.275,-268.421 126.409,-235.931C113.575,-197.555 96.273,-170.431 87.573,-157.822C62.606,-121.637 36.447,-100.588 13.391,-82.331C13.391,-82.331 -43.011,-37.668 -111.409,-13.822C-117.876,-11.567 -133.432,-6.407 -154.118,-3.376C-177.159,0 -190.576,-1.607 -196.173,-2.449C-206.076,-3.938 -215.889,-5.529 -226.009,-12.703C-235.738,-19.601 -240.477,-27.92 -241.664,-30.103C-248.513,-42.7 -247.904,-54.759 -247.5,-61.14C-245.848,-87.202 -229.636,-104.924 -222.736,-112.467C-208.459,-128.074 -193.216,-134.96 -188.482,-136.958C-188.482,-136.958 -172.755,-143.614 -156.136,-144.376C-152.924,-144.523 -147.927,-144.124 -145.036,-144.09C-143.942,-143.992 -143.203,-144.039 -142.139,-143.558C-141.725,-143.389 -141.082,-142.876 -140.918,-142.59C-140.772,-142.335 -140.786,-142.07 -140.795,-141.867C-140.8,-141.766 -140.833,-141.271 -141.205,-140.749C-141.533,-140.287 -141.946,-140.058 -142.132,-139.958C-143.52,-139.209 -144.215,-138.834 -144.805,-138.662C-150.069,-137.132 -154.823,-134.196 -159.92,-132.178C-166.692,-129.498 -171.884,-126.389 -177.702,-122.906C-195.052,-112.517 -206.055,-99.309 -208.084,-96.833C-219.69,-82.669 -223.73,-70.692 -224.666,-65.36C-225.391,-61.23 -225.43,-56.906 -225.43,-56.906C-225.46,-53.464 -225.486,-50.513 -224.448,-46.978C-223.11,-42.427 -220.749,-39.43 -219.539,-37.924C-215.027,-32.311 -209.625,-29.85 -206.666,-28.542C-202.022,-26.49 -197.543,-25.523 -189.484,-24.833C-181.128,-24.117 -173.553,-23.468 -161.83,-24.669C-155.067,-25.362 -143.396,-27.033 -122.502,-34.051C-101.251,-41.189 -85.62,-48.767 -80.066,-51.506C-57.486,-62.639 -30.702,-75.845 -1.193,-98.851C19.059,-114.64 53.053,-141.671 80.189,-188.687C102.855,-227.96 110.275,-263.055 114.443,-283.597C121.553,-318.639 121.427,-345.748 121.207,-367.16C121.048,-382.632 119.77,-434.445 101.57,-499.597C87.644,-549.45 69.566,-586.63 59.025,-606.506C39.066,-644.14 17.435,-673.952 -0.975,-696.178L0,-729.567Z" style="fill-rule:nonzero;"/>
        </g>
        <g transform="matrix(1,0,0,1,1232.5,883.215)">
            <path d="M0,49.871C4.342,48.006 11.521,44.373 18.327,37.653C34.958,21.231 37.911,-2.326 40.582,-26.056C42.592,-43.914 40.487,-44.223 43.2,-58.565C45.666,-71.605 48.986,-88.041 61.964,-101.984C68.504,-109.01 75.213,-112.949 77.891,-114.42C88.352,-120.165 97.787,-121.465 101.455,-121.838C106.957,-122.398 118.765,-122.836 131.127,-117.474C153.431,-107.801 161.542,-86.06 163.854,-79.947C165.803,-74.798 167.442,-68.677 168.436,-58.565C169.581,-46.924 170.522,-23.395 161.018,8.853C150.864,43.306 134.651,67.822 125.891,79.762C101.809,112.587 74.496,131.558 59.127,140.853C21.653,163.518 -34.036,172.707 -34.036,172.707L-27.055,146.526C-25.748,146.638 -23.821,146.77 -21.491,146.798C-5.748,146.991 6.822,142.205 20.291,135.78C38.824,126.939 52.781,120.281 69.764,106.653C76.57,101.191 98.829,82.6 117.982,50.798C119.699,47.947 139.078,15.463 146.127,-24.474C147.191,-30.5 148.854,-41.68 147,-55.674C145.715,-65.374 144.231,-75.581 136.527,-85.129C134.065,-88.181 128.204,-95.246 117.764,-98.438C114.072,-99.567 107.217,-101.004 99.218,-99.093C87.931,-96.396 81.38,-88.708 78.055,-84.693C69.59,-74.472 67.545,-63.56 65.618,-53.275C64.428,-46.923 65.098,-47.189 63,-22.511C62.025,-11.046 61.538,-5.313 61.036,-2.438C60.179,2.479 57.529,15.798 49.691,31.38C45.742,39.231 42.021,46.628 34.418,54.507C27.758,61.41 20.976,65.722 16.309,68.689C9.922,72.75 4.195,75.552 -0.055,77.416L0,49.871Z" style="fill-rule:nonzero;"/>
        </g>
        <g transform="matrix(1,0,0,1,734.175,988.335)">
            <path d="M0,-156.813C-5.404,-150.044 -8.106,-146.659 -22.091,-129.486C-29.781,-120.042 -37.096,-111.022 -45.655,-98.722C-52.214,-89.294 -55.704,-84.23 -59.564,-76.304C-63.104,-69.033 -67.321,-60.183 -68.727,-47.995C-69.607,-40.373 -70.397,-33.525 -67.255,-25.577C-63.086,-15.032 -54.747,-9.508 -50.727,-6.922C-41.777,-1.165 -32.837,0.393 -25.364,1.096C-17.167,1.867 4.206,3.015 40.418,-8.231C60.449,-14.452 87.651,-25.283 94.418,-28.195C95.826,-28.8 101.909,-31.456 110.305,-34.168C111.553,-34.571 112.332,-34.901 113.986,-35.313C114.674,-35.484 115.267,-35.608 116.032,-35.558C116.718,-35.514 117.9,-35.438 118.527,-34.577C118.986,-33.946 118.929,-33.195 118.896,-32.818C118.76,-31.309 117.722,-30.26 117.382,-29.913C111.506,-23.933 116.043,-26.655 110.427,-22.508C89.849,-7.313 84.286,-4.427 84.286,-4.427C56.883,9.794 31.596,16.437 31.595,16.437C14.181,21.012 -3.457,25.482 -25.827,23.364C-37.298,22.278 -45.34,19.903 -51.136,17.692C-58.886,14.735 -68.142,11.204 -76.664,2.201C-86.406,-8.092 -89.372,-19.391 -90.409,-23.545C-92.997,-33.913 -92.094,-42.202 -91.282,-49.072C-90.168,-58.494 -87.537,-68.936 -80.809,-83.327C-68.755,-109.11 -53.688,-125.876 -41.536,-139.399C-41.536,-139.399 -24.901,-157.912 -9.245,-169.29C-5.719,-171.853 -0.03,-175.336 3.627,-178.018C4.806,-178.882 5.75,-179.426 7.636,-180.513C8.551,-181.04 9.397,-181.499 10.582,-181.822C11.03,-181.945 11.857,-182.138 12.914,-182.19C13.738,-182.231 14.285,-182.295 14.918,-182.108C15.286,-182 15.577,-181.911 15.777,-181.658C16.224,-181.096 15.898,-180.131 15.695,-179.613C14.306,-176.064 8.358,-168.111 6.695,-165.704C3.589,-161.318 1.024,-158.096 0,-156.813" style="fill-rule:nonzero;"/>
        </g>
        <g transform="matrix(1,0,0,1,404.066,906.781)">
            <path d="M0,-234.518C-3.008,-227.513 -5.649,-221.685 -7.636,-217.391C-15.324,-200.778 -18.575,-195.549 -20.182,-193.063C-21.496,-191.03 -23.955,-187.362 -29.127,-180.954C-42.593,-164.274 -48.995,-160.566 -60,-147.791C-68.658,-137.74 -73.913,-129.335 -78.709,-121.663C-87.182,-108.112 -92.737,-99.067 -96.382,-85.5C-99.803,-72.765 -99.725,-62.799 -99.655,-59.809C-99.519,-54.036 -99.313,-45.309 -95.564,-35.754C-95.564,-35.754 -88.705,-18.837 -71.182,-7.391C-67.902,-5.248 -64.036,-3.942 -61.145,-1.609C-60.83,-1.354 -60.001,-0.664 -58.745,-0.409C-56.732,0 -55.01,-0.992 -54.709,-1.173C-52.441,-2.533 -51.831,-5.209 -51.436,-7.063C-51.162,-8.353 -49.956,-14.107 -53.291,-19.718C-55.021,-22.628 -56.124,-22.391 -63.545,-29.1C-66.819,-32.059 -68.455,-33.538 -69.764,-35.1C-70.7,-36.217 -74.355,-40.766 -76.418,-50.373C-77.088,-53.49 -79.237,-64.809 -75.436,-80.7C-72.392,-93.43 -67.187,-102.164 -63,-109.063C-55.283,-121.779 -46.938,-130.434 -41.182,-136.336C-27.666,-150.195 -20.455,-156.627 -20.455,-156.627C-18.151,-158.682 -14.847,-161.558 -11.182,-166.227C-8.565,-169.561 -7.22,-171.954 -3.327,-178.554C3.975,-190.936 3.143,-189.129 5.4,-193.173C8.424,-198.589 12.376,-206.239 16.418,-215.973L0,-234.518Z" style="fill-rule:nonzero;"/>
        </g>
        <g transform="matrix(1,0,0,1,859.902,1221.25)">
            <path d="M0,-25.763C-5.314,-24.297 -12.309,-22.644 -20.618,-21.427C-31.969,-19.764 -40.589,-19.672 -47.291,-19.627C-58.591,-19.549 -74.132,-19.443 -85.091,-22.69C-90.727,-24.36 -97.035,-24.35 -102.109,-27.318C-102.676,-27.649 -103.915,-28.413 -105.218,-28.054C-107.951,-27.301 -109.366,-22.401 -109.227,-18.645C-109.125,-15.875 -108.187,-13.764 -107.673,-12.754C-107.023,-11.478 -103.976,-5.917 -92.618,-1.79C-88.635,-0.343 -84.602,0.575 -74.782,1.482C-62.798,2.59 -53.637,2.626 -52.118,2.628C-37.001,2.65 -25.379,1.42 -17.673,0.582C-9.112,-0.348 -1.969,-1.423 3.191,-2.281L0,-25.763Z" style="fill-rule:nonzero;"/>
        </g>
        <g transform="matrix(1.04838,0,0,1.04838,6.2171,-40.0002)">
            <g transform="matrix(1.4118,0,0,1.4118,-434.446,-752.429)">
                <g transform="matrix(1,0,0,1,46.1937,335.276)">
                    <g transform="matrix(0.94694,0.32141,0.32141,-0.94694,358.061,825.156)">
                        <path d="M7.016,-45.899L156.759,-45.899L277.594,43.789L126.858,42.013L7.016,-45.899Z" style="fill:rgb(208,224,178);fill-rule:nonzero;"/>
                    </g>
                    <g transform="matrix(0,1,1,0,525.124,908.231)">
                        <path d="M-33.433,-180.01L133.973,-180.01L180.01,-33.433L8.68,-33.433L-33.433,-180.01Z" style="fill:rgb(204,145,74);fill-rule:nonzero;"/>
                    </g>
                    <g transform="matrix(0.0111749,0.999938,0.999938,-0.0111749,624.803,905.247)">
                        <path d="M12.269,-133.198L179.161,-133.198L136.58,12.385L-32.177,14.271L12.269,-133.198Z" style="fill:rgb(99,154,0);fill-rule:nonzero;"/>
                    </g>
                    <g transform="matrix(1,0,0,1,422.591,1026.2)">
                        <path d="M0,-136.134L69.159,-114.922L193.402,-153.036L69.159,-191.655L-55.197,-153.07L0,-136.134ZM61.487,52.562L61.486,-102.881L-70.639,-143.409L-70.639,12.036L61.487,52.562ZM76.831,52.562L208.958,12.036L208.958,-143.248L76.831,-102.886L76.831,52.562ZM-81.455,23.11C-84.163,22.28 -85.983,20.002 -85.983,17.441L-85.983,-153.651C-85.983,-156.201 -84.171,-158.477 -81.476,-159.313L65.306,-204.866C66.544,-205.251 67.839,-205.446 69.155,-205.446C70.474,-205.446 71.771,-205.25 73.013,-204.864L219.795,-159.238C222.49,-158.402 224.301,-156.127 224.301,-153.576L224.301,17.441C224.301,20.002 222.481,22.28 219.772,23.11L69.159,69.312L-81.455,23.11Z" style="fill-rule:nonzero;"/>
                    </g>
                    <g transform="matrix(1,0,0,1,501.423,991.566)">
                        <path d="M0,-66.77L128.126,-105.911L128.126,45.193L0,84.492L0,-66.77ZM-147.47,45.193L-147.47,-106.068L-55.677,-77.913L-19.345,-66.768L-19.344,84.492L-147.47,45.193ZM-127.244,-118.445L-9.673,-154.925L107.792,-118.413L-9.672,-82.379L-78.245,-103.411L-127.244,-118.445ZM-9.675,-172.81C-11.192,-172.81 -12.687,-172.585 -14.118,-172.141L-158.55,-127.316L-160.898,-126.588C-164.437,-125.492 -166.814,-122.448 -166.814,-119.015L-166.814,52.077C-166.814,55.521 -164.427,58.568 -160.873,59.658L-16.517,103.94L-10.846,105.68L-9.672,106.04L-8.499,105.68L-2.827,103.94L141.528,59.658C145.082,58.568 147.469,55.521 147.469,52.077L147.469,-118.94C147.469,-122.372 145.093,-125.415 141.557,-126.512L139.083,-127.28L-5.225,-172.139C-6.658,-172.584 -8.155,-172.81 -9.675,-172.81M-4,89.902L132.126,48.15L132.126,-111.315L-4,-69.731L-4,89.902M-15.344,89.902L-15.345,-69.725L-54.504,-81.737L-151.47,-111.479L-151.47,48.15L-15.344,89.902M-9.672,-78.195L121.349,-118.388L-9.672,-159.113L-140.811,-118.424L-79.418,-99.587L-9.672,-78.195M-9.675,-168.81C-8.57,-168.81 -7.465,-168.646 -6.412,-168.319L137.897,-123.46L140.371,-122.692C142.232,-122.115 143.469,-120.617 143.469,-118.94L143.469,52.077C143.469,53.759 142.225,55.26 140.355,55.834L-4,100.115L-9.672,101.856L-15.344,100.115L-159.7,55.834C-161.569,55.26 -162.814,53.759 -162.814,52.077L-162.814,-119.015C-162.814,-120.692 -161.576,-122.19 -159.714,-122.767L-157.364,-123.496L-12.932,-168.321C-11.88,-168.647 -10.778,-168.81 -9.675,-168.81" style="fill-rule:nonzero;"/>
                    </g>
                </g>
                <g transform="matrix(1,0,0,1,191.735,380.47)">
                    <g transform="matrix(0.94694,0.32141,0.32141,-0.94694,358.061,825.156)">
                        <path d="M7.016,-45.899L156.759,-45.899L277.594,43.789L126.858,42.013L7.016,-45.899Z" style="fill:rgb(204,145,74);fill-rule:nonzero;"/>
                    </g>
                    <g transform="matrix(0,1,1,0,525.124,908.231)">
                        <path d="M-33.433,-180.01L133.973,-180.01L180.01,-33.433L8.68,-33.433L-33.433,-180.01Z" style="fill:rgb(208,224,178);fill-rule:nonzero;stroke:rgb(99,154,0);stroke-width:0.68px;stroke-miterlimit:2;"/>
                    </g>
                    <g transform="matrix(0.0111749,0.999938,0.999938,-0.0111749,624.803,905.247)">
                        <path d="M12.269,-133.198L179.161,-133.198L136.58,12.385L-32.177,14.271L12.269,-133.198Z" style="fill:rgb(99,154,0);fill-rule:nonzero;stroke:rgb(204,145,74);stroke-width:0.68px;stroke-miterlimit:2;"/>
                    </g>
                    <g transform="matrix(1,0,0,1,422.591,1026.2)">
                        <path d="M0,-136.134L69.159,-114.922L193.402,-153.036L69.159,-191.655L-55.197,-153.07L0,-136.134ZM61.487,52.562L61.486,-102.881L-70.639,-143.409L-70.639,12.036L61.487,52.562ZM76.831,52.562L208.958,12.036L208.958,-143.248L76.831,-102.886L76.831,52.562ZM-81.455,23.11C-84.163,22.28 -85.983,20.002 -85.983,17.441L-85.983,-153.651C-85.983,-156.201 -84.171,-158.477 -81.476,-159.313L65.306,-204.866C66.544,-205.251 67.839,-205.446 69.155,-205.446C70.474,-205.446 71.771,-205.25 73.013,-204.864L219.795,-159.238C222.49,-158.402 224.301,-156.127 224.301,-153.576L224.301,17.441C224.301,20.002 222.481,22.28 219.772,23.11L69.159,69.312L-81.455,23.11Z" style="fill-rule:nonzero;"/>
                    </g>
                    <g transform="matrix(1,0,0,1,501.423,991.566)">
                        <path d="M0,-66.77L128.126,-105.911L128.126,45.193L0,84.492L0,-66.77ZM-147.47,45.193L-147.47,-106.068L-55.677,-77.913L-19.345,-66.768L-19.344,84.492L-147.47,45.193ZM-127.244,-118.445L-9.673,-154.925L107.792,-118.413L-9.672,-82.379L-78.245,-103.411L-127.244,-118.445ZM-9.675,-172.81C-11.192,-172.81 -12.687,-172.585 -14.118,-172.141L-158.55,-127.316L-160.898,-126.588C-164.437,-125.492 -166.814,-122.448 -166.814,-119.015L-166.814,52.077C-166.814,55.521 -164.427,58.568 -160.873,59.658L-16.517,103.94L-10.846,105.68L-9.672,106.04L-8.499,105.68L-2.827,103.94L141.528,59.658C145.082,58.568 147.469,55.521 147.469,52.077L147.469,-118.94C147.469,-122.372 145.093,-125.415 141.557,-126.512L139.083,-127.28L-5.225,-172.139C-6.658,-172.584 -8.155,-172.81 -9.675,-172.81M-4,89.902L132.126,48.15L132.126,-111.315L-4,-69.731L-4,89.902M-15.344,89.902L-15.345,-69.725L-54.504,-81.737L-151.47,-111.479L-151.47,48.15L-15.344,89.902M-9.672,-78.195L121.349,-118.388L-9.672,-159.113L-140.811,-118.424L-79.418,-99.587L-9.672,-78.195M-9.675,-168.81C-8.57,-168.81 -7.465,-168.646 -6.412,-168.319L137.897,-123.46L140.371,-122.692C142.232,-122.115 143.469,-120.617 143.469,-118.94L143.469,52.077C143.469,53.759 142.225,55.26 140.355,55.834L-4,100.115L-9.672,101.856L-15.344,100.115L-159.7,55.834C-161.569,55.26 -162.814,53.759 -162.814,52.077L-162.814,-119.015C-162.814,-120.692 -161.576,-122.19 -159.714,-122.767L-157.364,-123.496L-12.932,-168.321C-11.88,-168.647 -10.778,-168.81 -9.675,-168.81" style="fill-rule:nonzero;"/>
                    </g>
                </g>
            </g>
            <g transform="matrix(0.963095,-0.269163,0.269163,0.963095,208.445,513.737)">
                <g transform="matrix(200,0,0,200,205.633,814.117)">
                    <path d="M0.243,-0.361C0.243,-0.322 0.244,-0.265 0.246,-0.188C0.248,-0.11 0.249,-0.053 0.249,-0.014C0.249,-0.008 0.248,-0.004 0.245,-0.002C0.244,-0.002 0.24,-0.001 0.232,-0C0.211,0.003 0.182,0.004 0.147,0.004C0.099,0.004 0.069,0.003 0.056,-0C0.047,-0.002 0.042,-0.007 0.042,-0.015C0.042,-0.01 0.043,-0.039 0.046,-0.101C0.052,-0.233 0.055,-0.319 0.055,-0.361C0.055,-0.396 0.054,-0.448 0.052,-0.518C0.049,-0.587 0.048,-0.639 0.048,-0.674C0.048,-0.681 0.052,-0.685 0.06,-0.685C0.07,-0.685 0.085,-0.685 0.105,-0.684C0.126,-0.683 0.141,-0.682 0.151,-0.682C0.161,-0.682 0.176,-0.683 0.196,-0.684C0.215,-0.685 0.23,-0.685 0.24,-0.685C0.25,-0.685 0.254,-0.681 0.254,-0.674C0.254,-0.639 0.253,-0.587 0.249,-0.518C0.245,-0.448 0.243,-0.396 0.243,-0.361Z" style="fill:rgb(208,224,178);fill-rule:nonzero;"/>
                </g>
            </g>
            <g transform="matrix(0.993092,-0.11734,0.11734,0.993092,-88.0473,94.6557)">
                <g transform="matrix(96,0,0,96,275.436,932.206)">
                    <path d="M0.628,-0.24C0.628,-0.157 0.618,-0.1 0.598,-0.07C0.562,-0.014 0.471,0.013 0.325,0.013C0.259,0.013 0.209,0.008 0.173,-0.002C0.117,-0.018 0.08,-0.049 0.063,-0.095C0.055,-0.118 0.05,-0.158 0.05,-0.215C0.05,-0.229 0.051,-0.249 0.052,-0.275C0.053,-0.301 0.053,-0.321 0.053,-0.334C0.053,-0.372 0.051,-0.428 0.048,-0.504C0.044,-0.579 0.042,-0.636 0.042,-0.673C0.042,-0.681 0.046,-0.685 0.053,-0.685C0.073,-0.685 0.103,-0.684 0.143,-0.683C0.183,-0.681 0.213,-0.68 0.233,-0.68C0.241,-0.68 0.245,-0.677 0.245,-0.669C0.245,-0.626 0.244,-0.562 0.241,-0.476C0.238,-0.391 0.237,-0.326 0.237,-0.283C0.237,-0.232 0.242,-0.198 0.253,-0.18C0.267,-0.155 0.297,-0.143 0.343,-0.143C0.41,-0.143 0.443,-0.175 0.443,-0.24C0.443,-0.287 0.442,-0.358 0.439,-0.453C0.437,-0.547 0.436,-0.618 0.436,-0.665C0.436,-0.675 0.44,-0.68 0.448,-0.68C0.467,-0.68 0.496,-0.681 0.535,-0.683C0.574,-0.684 0.603,-0.685 0.622,-0.685C0.632,-0.685 0.636,-0.681 0.636,-0.673C0.636,-0.636 0.635,-0.579 0.632,-0.504C0.628,-0.428 0.627,-0.372 0.627,-0.334L0.628,-0.24Z" style="fill:rgb(204,145,74);fill-rule:nonzero;"/>
                </g>
            </g>
            <g transform="matrix(0.982161,-0.188041,0.188041,0.982161,-202.976,143.574)">
                <g transform="matrix(200,0,0,200,175.757,1091.49)">
                    <path d="M0.494,0.008C0.466,0.008 0.429,0.008 0.384,0.006C0.326,0.005 0.289,0.004 0.275,0.004L0.129,0.002C0.114,0.002 0.093,0.002 0.066,-0C0.056,-0.002 0.052,-0.007 0.052,-0.015C0.052,-0.051 0.052,-0.104 0.053,-0.175C0.055,-0.245 0.055,-0.299 0.055,-0.334C0.055,-0.372 0.054,-0.428 0.052,-0.504C0.049,-0.579 0.048,-0.636 0.048,-0.673C0.048,-0.681 0.053,-0.684 0.063,-0.684C0.073,-0.684 0.087,-0.684 0.107,-0.683C0.126,-0.682 0.14,-0.681 0.15,-0.681C0.161,-0.681 0.177,-0.682 0.198,-0.683C0.219,-0.684 0.235,-0.685 0.246,-0.685C0.25,-0.685 0.253,-0.681 0.252,-0.675L0.252,-0.669C0.248,-0.608 0.244,-0.516 0.239,-0.393L0.238,-0.264C0.238,-0.222 0.238,-0.192 0.239,-0.173C0.239,-0.169 0.239,-0.165 0.24,-0.161C0.24,-0.157 0.243,-0.155 0.247,-0.154L0.26,-0.154C0.289,-0.154 0.333,-0.155 0.391,-0.158C0.45,-0.162 0.494,-0.163 0.523,-0.163C0.532,-0.163 0.536,-0.159 0.536,-0.152C0.536,-0.096 0.532,-0.048 0.524,-0.008C0.522,0.001 0.519,0.006 0.514,0.007C0.512,0.008 0.505,0.008 0.494,0.008Z" style="fill:rgb(208,224,178);fill-rule:nonzero;"/>
                </g>
            </g>
            <g transform="matrix(0.905501,0.424344,-0.424344,0.905501,675.774,155.083)">
                <g transform="matrix(200,0,0,200,175.757,1091.49)">
                    <path d="M0.243,-0.361C0.243,-0.322 0.244,-0.265 0.246,-0.188C0.248,-0.11 0.249,-0.053 0.249,-0.014C0.249,-0.008 0.248,-0.004 0.245,-0.002C0.244,-0.002 0.24,-0.001 0.232,-0C0.211,0.003 0.182,0.004 0.147,0.004C0.099,0.004 0.069,0.003 0.056,-0C0.047,-0.002 0.042,-0.007 0.042,-0.015C0.042,-0.01 0.043,-0.039 0.046,-0.101C0.052,-0.233 0.055,-0.319 0.055,-0.361C0.055,-0.396 0.054,-0.448 0.052,-0.518C0.049,-0.587 0.048,-0.639 0.048,-0.674C0.048,-0.681 0.052,-0.685 0.06,-0.685C0.07,-0.685 0.085,-0.685 0.105,-0.684C0.126,-0.683 0.141,-0.682 0.151,-0.682C0.161,-0.682 0.176,-0.683 0.196,-0.684C0.215,-0.685 0.23,-0.685 0.24,-0.685C0.25,-0.685 0.254,-0.681 0.254,-0.674C0.254,-0.639 0.253,-0.587 0.249,-0.518C0.245,-0.448 0.243,-0.396 0.243,-0.361Z" style="fill:rgb(204,145,74);fill-rule:nonzero;"/>
                </g>
            </g>
            <g transform="matrix(0.988676,-0.150066,0.150066,0.988676,259.689,241.08)">
                <g transform="matrix(96,0,0,96,115.591,839.02)">
                    <path d="M0.688,-0.016C0.688,-0.007 0.684,-0.002 0.674,-0.002C0.668,-0.002 0.65,-0.006 0.62,-0.013C0.591,-0.02 0.573,-0.025 0.566,-0.028C0.498,-0.001 0.433,0.012 0.37,0.012C0.27,0.012 0.187,-0.021 0.123,-0.088C0.059,-0.154 0.027,-0.238 0.027,-0.339C0.027,-0.442 0.058,-0.528 0.12,-0.596C0.183,-0.666 0.266,-0.701 0.368,-0.701C0.418,-0.701 0.464,-0.692 0.508,-0.673C0.555,-0.652 0.592,-0.623 0.619,-0.585C0.625,-0.577 0.627,-0.572 0.627,-0.568C0.627,-0.558 0.613,-0.535 0.584,-0.498C0.555,-0.462 0.536,-0.444 0.527,-0.444C0.525,-0.444 0.518,-0.451 0.505,-0.464C0.489,-0.48 0.473,-0.492 0.456,-0.501C0.431,-0.514 0.404,-0.521 0.374,-0.521C0.325,-0.521 0.286,-0.503 0.258,-0.466C0.231,-0.433 0.218,-0.391 0.218,-0.341C0.218,-0.288 0.232,-0.246 0.259,-0.215C0.288,-0.183 0.328,-0.167 0.381,-0.167C0.414,-0.167 0.451,-0.175 0.492,-0.192C0.491,-0.203 0.488,-0.23 0.483,-0.274C0.479,-0.308 0.477,-0.335 0.477,-0.356C0.477,-0.362 0.479,-0.366 0.483,-0.367C0.485,-0.368 0.488,-0.368 0.491,-0.368C0.501,-0.368 0.515,-0.367 0.534,-0.365C0.553,-0.364 0.567,-0.363 0.577,-0.363C0.588,-0.363 0.603,-0.364 0.624,-0.365C0.645,-0.366 0.66,-0.367 0.671,-0.367C0.679,-0.367 0.683,-0.362 0.683,-0.351C0.683,-0.335 0.682,-0.312 0.68,-0.28C0.679,-0.249 0.678,-0.225 0.678,-0.209C0.678,-0.167 0.681,-0.105 0.687,-0.021L0.688,-0.016Z" style="fill:rgb(208,224,178);fill-rule:nonzero;"/>
                </g>
            </g>
        </g>
    </g>
</svg>
